<?xml version="1.0" encoding="utf-8"?>
<!-- Uploaded to: SVG Repo, www.svgrepo.com, Generator: SVG Repo Mixer Tools -->
<svg version="1.1" id="Uploaded to svgrepo.com" xmlns="http://www.w3.org/2000/svg" xmlns:xlink="http://www.w3.org/1999/xlink" 
	 width="800px" height="800px" viewBox="0 0 32 32" xml:space="preserve">
<style type="text/css">
	.hatch_een{fill:#265AA5;}
	.hatch_twee{fill:#FFC5BB;}
</style>
<g>
	<path class="hatch_twee" d="M8.156,26.295l-0.314-1.1L9.037,24h1.414L8.156,26.295z M9.451,21H8.037l-2,2h1.414L9.451,21z
		 M14.451,24h-1.414L8.73,28.306l0.314,1.1L14.451,24z M23.451,23L25,21.451V21h-0.963l-2,2H23.451z M18.037,31h1.414l2.869-2.869
		l0.566-1.98L18.037,31z M22.451,24h-1.414l-7,7h1.414L22.451,24z M10.037,23h1.414l2-2h-1.414L10.037,23z M18.451,24h-1.414l-7,7
		h1.414L18.451,24z M14.037,23h1.414l2-2h-1.414L14.037,23z M18.037,23h1.414l2-2h-1.414L18.037,23z"/>
	<path class="hatch_een" d="M27.687,5.572c0.212-0.304,0.239-0.701,0.069-1.031S27.246,4.003,26.875,4c-0.003,0-0.037,0-0.039,0
		c-0.579,0-3.555,0.046-5.299,0.958c-2.044,1.069-2.619,3.371-2.643,3.468c-0.024,0.098-0.025,0.196-0.02,0.293
		c-0.694,0.06-1.351,0.354-1.888,0.883c-0.51,0.502-0.886,1.173-1.168,1.89c-0.158-1.648-0.456-3.301-1.004-4.064
		c0.029-0.06,0.064-0.116,0.08-0.183c0.023-0.092,0.548-2.271-1.027-4.19c-1.289-1.57-4.15-2.833-4.472-2.972
		C9.269,0.027,9.134,0,9,0C8.774,0,8.549,0.077,8.368,0.225C8.078,0.461,7.945,0.839,8.021,1.204
		c0.071,0.34,0.738,3.364,2.021,4.942c1.499,1.842,3.928,1.844,3.951,1.843c0.54,0.64,0.848,3.198,0.958,5.578
		c-0.383-0.32-1.092-0.42-1.101-0.433c-0.055-0.08-1.39-2.001-3.927-2.127C9.844,11.002,9.762,11,9.678,11
		c-2.097,0-4.971,1.296-5.092,1.351c-0.341,0.155-0.566,0.487-0.585,0.861c-0.019,0.374,0.173,0.726,0.496,0.914
		c0.31,0.18,3.092,1.764,5.178,1.868C9.753,15.998,9.83,16,9.906,16c2.21,0,3.764-1.537,3.937-1.83
		c0.328,0.075,0.6,0.207,0.786,0.444c0.257,0.326,0.349,0.755,0.378,1.11L15.002,20H6c-0.552,0-1,0.448-1,1v2c0,0.552,0.448,1,1,1
		h0.438l2.101,7.275C8.661,31.704,9.054,32,9.5,32h12c0.446,0,0.839-0.296,0.962-0.725L24.521,24H25c0.552,0,1-0.448,1-1v-2
		c0-0.552-0.448-1-1-1h-9v-4.261c0.04-0.918,0.289-4.048,1.688-5.425c0.291-0.287,0.613-0.465,0.97-0.553
		c-0.135,0.101-0.471,2.54,1.25,4.406c1.415,1.534,4.414,2.651,4.751,2.773C24.77,16.98,24.885,17,25,17
		c0.247,0,0.49-0.092,0.678-0.265c0.275-0.253,0.385-0.639,0.287-0.999c-0.095-0.346-0.966-3.425-2.381-4.959
		c-0.344-0.373-0.725-0.657-1.11-0.881c0.457-0.092,0.9-0.24,1.323-0.462C25.626,8.478,27.481,5.867,27.687,5.572z M13.925,7
		c0,0-1.938-0.061-3.11-1.488C9.644,4.084,9,1,9,1s2.923,1.261,4.095,2.688C14.369,5.24,13.925,7,13.925,7z M9.906,15
		c-0.06,0-0.12-0.001-0.181-0.005C7.822,14.901,5,13.262,5,13.262S7.774,12,9.678,12c0.067,0,0.132,0.002,0.197,0.005
		C11.944,12.108,13,13.659,13,13.659S11.715,15,9.906,15z M21.5,31h-12l-2-7h16L21.5,31z M25,23H6v-2h19V23z M22.848,11.455
		C24.139,12.854,25,16,25,16s-3.066-1.112-4.357-2.511c-1.403-1.521-1.067-3.369-1.067-3.369s0.014,0,0.04,0
		C19.903,10.119,21.666,10.173,22.848,11.455z M21.499,9c-0.958,0-1.633-0.34-1.633-0.34S20.335,6.715,22,5.844
		C23.57,5.024,26.503,5,26.836,5c0.02,0,0.031,0,0.031,0s-1.868,2.677-3.534,3.548C22.678,8.891,22.043,9,21.499,9z"/>
</g>
</svg>