<?xml version="1.0" encoding="utf-8"?>
<!-- Uploaded to: SVG Repo, www.svgrepo.com, Generator: SVG Repo Mixer Tools -->
<svg width="800px" height="800px" viewBox="0 0 1024 1024" class="icon"  version="1.1" xmlns="http://www.w3.org/2000/svg"><path d="M226.5 179.4m-35.7 0a35.7 35.7 0 1 0 71.4 0 35.7 35.7 0 1 0-71.4 0Z" fill="#154B8B" /><path d="M397.2 687.6m-35.7 0a35.7 35.7 0 1 0 71.4 0 35.7 35.7 0 1 0-71.4 0Z" fill="#154B8B" /><path d="M71.8 314.2m-35.7 0a35.7 35.7 0 1 0 71.4 0 35.7 35.7 0 1 0-71.4 0Z" fill="#154B8B" /><path d="M551.9 552.8m-35.7 0a35.7 35.7 0 1 0 71.4 0 35.7 35.7 0 1 0-71.4 0Z" fill="#154B8B" /><path d="M57.8 518.9m-35.7 0a35.7 35.7 0 1 0 71.4 0 35.7 35.7 0 1 0-71.4 0Z" fill="#154B8B" /><path d="M566 348.2m-35.7 0a35.7 35.7 0 1 0 71.4 0 35.7 35.7 0 1 0-71.4 0Z" fill="#154B8B" /><path d="M192.5 673.6m-35.7 0a35.7 35.7 0 1 0 71.4 0 35.7 35.7 0 1 0-71.4 0Z" fill="#154B8B" /><path d="M431.2 193.5m-35.7 0a35.7 35.7 0 1 0 71.4 0 35.7 35.7 0 1 0-71.4 0Z" fill="#154B8B" /><path d="M311.9 433.5m-169.4 0a169.4 169.4 0 1 0 338.8 0 169.4 169.4 0 1 0-338.8 0Z" fill="#9BCFDD" /><path d="M311.7 617c-27.9 0-55.7-6.5-81.5-19.3-43.9-21.8-76.6-59.4-92.2-105.8s-12.2-96.2 9.6-140c21.8-43.9 59.4-76.6 105.8-92.2 46.4-15.6 96.2-12.2 140 9.6 43.9 21.8 76.6 59.4 92.2 105.8 32.2 95.9-19.6 200-115.4 232.2-19.1 6.5-38.9 9.7-58.5 9.7z m0.3-339c-16.7 0-33.4 2.7-49.7 8.2-39.4 13.2-71.2 41-89.7 78.2s-21.4 79.3-8.2 118.7c13.2 39.4 41 71.2 78.2 89.7s79.3 21.4 118.7 8.2c81.3-27.3 125.2-115.6 97.9-196.9-13.2-39.4-41-71.2-78.2-89.7-21.8-10.9-45.3-16.4-69-16.4z" fill="#154B8B" /><path d="M652.7 208c-182.5 0-330.4 147.9-330.4 330.4 0 2.3 0.1 4.6 0.2 6.8H215.2c-89 0-161.8 72.8-161.8 161.8 0 89 72.8 161.8 161.8 161.8h405.6c4.2 0 8.2-0.3 12.3-0.6 6.5 0.4 13 0.6 19.6 0.6 182.5 0 330.4-147.9 330.4-330.4C983 355.9 835.1 208 652.7 208z" fill="#FCFCFC" /><path d="M652.7 882.7c-6 0-12.4-0.2-19.5-0.6-4 0.3-8.1 0.6-12.4 0.6H215.2c-46.8 0-90.8-18.3-124.1-51.6S39.5 753.8 39.5 707s18.3-90.8 51.6-124.1 77.4-51.6 124.1-51.6h93.2c1.8-89.3 37.4-173 100.8-236.4 65-65 151.5-100.9 243.5-100.9s178.4 35.8 243.5 100.9c65 65 100.9 151.5 100.9 243.5s-35.8 178.4-100.9 243.5-151.6 100.8-243.5 100.8z m-19.6-28.5h0.8c6.9 0.4 13.1 0.6 18.8 0.6 84.5 0 164-32.9 223.7-92.7 59.8-59.8 92.7-139.2 92.7-223.7s-32.9-164-92.7-223.7C816.6 254.9 737.2 222 652.7 222s-164 32.9-223.7 92.7c-59.8 59.8-92.7 139.2-92.7 223.7 0 1.2 0 2.4 0.1 3.7 0 0.9 0.1 1.9 0.1 2.8 0.1 3.8-1.4 7.4-4 10.1-2.6 2.7-6.2 4.2-10 4.2H215.2c-39.3 0-76.4 15.4-104.4 43.4S67.4 667.7 67.4 707c0 39.3 15.4 76.4 43.4 104.4s65.1 43.4 104.4 43.4h405.6c3.6 0 7.2-0.3 11.1-0.6h1.2z" fill="#144884" /></svg>